<?xml version="1.0" encoding="UTF-8"?>
<svg width="48px" height="48px" viewBox="0 0 48 48" version="1.1" xmlns="http://www.w3.org/2000/svg" xmlns:xlink="http://www.w3.org/1999/xlink">
    <title>Icons/媒体平台/ Google</title>
    <defs>
        <path d="M31.0419851,13.1307882 L16.0875778,13.1307882 L16.0875778,19.3313961 L24.6954806,19.3313961 C23.893049,23.2706058 20.5374259,25.532004 16.0875778,25.532004 C10.8501054,25.532004 6.60429516,21.2861937 6.60429516,16.0487213 C6.60429516,10.8112489 10.8501054,6.56543864 16.0875778,6.56543864 C18.2431132,6.56288573 20.3322923,7.31086344 21.9963924,8.68094016 L26.6650854,4.01224715 C21.3071099,-0.713003566 13.4708259,-1.32772862 7.44157089,2.50423951 C1.41231583,6.33620764 -1.35810668,13.6921571 0.645332025,20.5494255 C2.64877073,27.4066938 8.94365623,32.1140975 16.0875778,32.0973981 C24.1118939,32.0973981 31.4067268,26.2614873 31.4067268,16.0487213 C31.3932695,15.0655923 31.2709429,14.0869796 31.0419851,13.1307882 Z" id="path-1"></path>
    </defs>
    <g id="Icons/媒体平台/-Google" stroke="none" stroke-width="1" fill="none" fill-rule="evenodd">
        <rect id="矩形" x="0" y="0" width="48" height="48"></rect>
        <g id="google-g-2015">
            <circle id="椭圆形" fill="#E0E0E0" fill-rule="nonzero" cx="24" cy="24" r="24"></circle>
            <circle id="椭圆形" fill="#FFFFFF" fill-rule="nonzero" cx="24" cy="23.6352584" r="23.6352584"></circle>
            <g id="路径" transform="translate(8.277164, 7.732434)">
                <mask id="mask-2" fill="white">
                    <use xlink:href="#path-1"></use>
                </mask>
                <g id="蒙版"></g>
                <polygon fill="#FBBC05" fill-rule="nonzero" mask="url(#mask-2)" points="-1.42002094 25.532004 -1.42002094 6.56543864 10.9811949 16.0487213"></polygon>
                <polygon fill="#EA4335" fill-rule="nonzero" mask="url(#mask-2)" points="-1.42002094 6.56543864 10.9811949 16.0487213 16.0875778 11.5988733 33.5951766 8.75388849 33.5951766 -1.45887747 -1.42002094 -1.45887747"></polygon>
                <polygon fill="#34A853" fill-rule="nonzero" mask="url(#mask-2)" points="-1.42002094 25.532004 20.4644775 8.75388849 26.2273955 9.48337177 33.5951766 -1.45887747 33.5951766 33.5563201 -1.42002094 33.5563201"></polygon>
                <polygon fill="#4285F4" fill-rule="nonzero" mask="url(#mask-2)" points="33.5951766 33.5563201 10.9811949 16.0487213 8.06326173 13.8602715 33.5951766 6.56543864"></polygon>
            </g>
            <path d="M39.3191489,20.8632219 L24.3647416,20.8632219 L24.3647416,27.0638298 L32.9726444,27.0638298 C32.1702128,31.0030395 28.8145897,33.2644377 24.3647416,33.2644377 C19.1272692,33.2644377 14.881459,29.0186274 14.881459,23.781155 C14.881459,18.5436826 19.1272692,14.2978723 24.3647416,14.2978723 C26.520277,14.2953194 28.6094561,15.0432971 30.2735562,16.4133739 L34.9422492,11.7446809 C29.5842737,7.01943013 21.7479897,6.40470507 15.7187347,10.2366732 C9.68947963,14.0686413 6.91905712,21.4245908 8.92249583,28.2818592 C10.9259345,35.1391275 17.22082,39.8465312 24.3647416,39.8298318 C32.3890578,39.8298318 39.6838906,33.993921 39.6838906,23.781155 C39.6704333,22.798026 39.5481067,21.8194133 39.3191489,20.8632219 Z" id="路径"></path>
        </g>
    </g>
</svg>